<svg xmlns="http://www.w3.org/2000/svg" xmlns:xlink="http://www.w3.org/1999/xlink" width="500" zoomAndPan="magnify" viewBox="0 0 375 374.999991" height="500" preserveAspectRatio="xMidYMid meet" version="1.0"><defs><clipPath id="id1"><path d="M 71.308594 87.40625 L 303.808594 87.40625 L 303.808594 133 L 71.308594 133 Z M 71.308594 87.40625 " clip-rule="nonzero"/></clipPath><clipPath id="id2"><path d="M 71.308594 119 L 95 119 L 95 143 L 71.308594 143 Z M 71.308594 119 " clip-rule="nonzero"/></clipPath><clipPath id="id3"><path d="M 280 119 L 303.808594 119 L 303.808594 143 L 280 143 Z M 280 119 " clip-rule="nonzero"/></clipPath><clipPath id="id4"><path d="M 86 112 L 96 112 L 96 287.65625 L 86 287.65625 Z M 86 112 " clip-rule="nonzero"/></clipPath><clipPath id="id5"><path d="M 273 112 L 284 112 L 284 287.65625 L 273 287.65625 Z M 273 112 " clip-rule="nonzero"/></clipPath><clipPath id="id6"><path d="M 86 221 L 284 221 L 284 287.65625 L 86 287.65625 Z M 86 221 " clip-rule="nonzero"/></clipPath></defs><rect x="-37.5" width="450" fill="#ffffff" y="-37.499999" height="449.999989" fill-opacity="1"/><rect x="-37.5" width="450" fill="#ffffff" y="-37.499999" height="449.999989" fill-opacity="1"/><rect x="-37.5" width="450" fill="#ffffff" y="-37.499999" height="449.999989" fill-opacity="1"/><path fill="#000000" d="M 187.5 0 C 83.945312 0 0 83.945312 0 187.5 C 0 291.054688 83.945312 375 187.5 375 C 291.054688 375 375 291.054688 375 187.5 C 375 83.945312 291.054688 0 187.5 0 " fill-opacity="1" fill-rule="nonzero"/><g clip-path="url(#id1)"><path fill="#00f6ff" d="M 303.800781 132.007812 L 71.316406 132.007812 L 71.316406 110.082031 L 187.558594 87.402344 L 303.800781 110.082031 L 303.800781 132.007812 " fill-opacity="1" fill-rule="nonzero"/></g><g clip-path="url(#id2)"><path fill="#00f6ff" d="M 94.566406 131.160156 C 94.566406 137.578125 89.359375 142.78125 82.941406 142.78125 C 76.519531 142.78125 71.316406 137.578125 71.316406 131.160156 C 71.316406 124.742188 76.519531 119.539062 82.941406 119.539062 C 89.359375 119.539062 94.566406 124.742188 94.566406 131.160156 " fill-opacity="1" fill-rule="nonzero"/></g><path fill="#00f6ff" d="M 117.8125 131.160156 C 117.8125 137.578125 112.609375 142.78125 106.1875 142.78125 C 99.769531 142.78125 94.566406 137.578125 94.566406 131.160156 C 94.566406 124.742188 99.769531 119.539062 106.1875 119.539062 C 112.609375 119.539062 117.8125 124.742188 117.8125 131.160156 " fill-opacity="1" fill-rule="nonzero"/><path fill="#00f6ff" d="M 141.0625 131.160156 C 141.0625 137.578125 135.855469 142.78125 129.4375 142.78125 C 123.015625 142.78125 117.8125 137.578125 117.8125 131.160156 C 117.8125 124.742188 123.015625 119.539062 129.4375 119.539062 C 135.855469 119.539062 141.0625 124.742188 141.0625 131.160156 " fill-opacity="1" fill-rule="nonzero"/><path fill="#00f6ff" d="M 164.308594 131.160156 C 164.308594 137.578125 159.105469 142.78125 152.683594 142.78125 C 146.265625 142.78125 141.0625 137.578125 141.0625 131.160156 C 141.0625 124.742188 146.265625 119.539062 152.683594 119.539062 C 159.105469 119.539062 164.308594 124.742188 164.308594 131.160156 " fill-opacity="1" fill-rule="nonzero"/><path fill="#00f6ff" d="M 187.558594 131.160156 C 187.558594 137.578125 182.351562 142.78125 175.933594 142.78125 C 169.511719 142.78125 164.308594 137.578125 164.308594 131.160156 C 164.308594 124.742188 169.511719 119.539062 175.933594 119.539062 C 182.351562 119.539062 187.558594 124.742188 187.558594 131.160156 " fill-opacity="1" fill-rule="nonzero"/><path fill="#00f6ff" d="M 210.808594 131.160156 C 210.808594 137.578125 205.601562 142.78125 199.183594 142.78125 C 192.761719 142.78125 187.558594 137.578125 187.558594 131.160156 C 187.558594 124.742188 192.761719 119.539062 199.183594 119.539062 C 205.601562 119.539062 210.808594 124.742188 210.808594 131.160156 " fill-opacity="1" fill-rule="nonzero"/><path fill="#00f6ff" d="M 234.050781 131.160156 C 234.050781 137.578125 228.847656 142.78125 222.429688 142.78125 C 216.007812 142.78125 210.808594 137.578125 210.808594 131.160156 C 210.808594 124.742188 216.007812 119.539062 222.429688 119.539062 C 228.847656 119.539062 234.050781 124.742188 234.050781 131.160156 " fill-opacity="1" fill-rule="nonzero"/><path fill="#00f6ff" d="M 257.304688 131.160156 C 257.304688 137.578125 252.097656 142.78125 245.679688 142.78125 C 239.257812 142.78125 234.054688 137.578125 234.054688 131.160156 C 234.054688 124.738281 239.257812 119.535156 245.679688 119.535156 C 252.097656 119.535156 257.304688 124.738281 257.304688 131.160156 " fill-opacity="1" fill-rule="nonzero"/><path fill="#00f6ff" d="M 280.550781 131.160156 C 280.550781 137.578125 275.347656 142.78125 268.925781 142.78125 C 262.507812 142.78125 257.300781 137.578125 257.300781 131.160156 C 257.300781 124.742188 262.507812 119.535156 268.925781 119.535156 C 275.347656 119.535156 280.550781 124.742188 280.550781 131.160156 " fill-opacity="1" fill-rule="nonzero"/><g clip-path="url(#id3)"><path fill="#00f6ff" d="M 303.800781 131.160156 C 303.800781 137.578125 298.59375 142.78125 292.175781 142.78125 C 285.753906 142.78125 280.550781 137.578125 280.550781 131.160156 C 280.550781 124.742188 285.753906 119.535156 292.175781 119.535156 C 298.59375 119.535156 303.800781 124.742188 303.800781 131.160156 " fill-opacity="1" fill-rule="nonzero"/></g><g clip-path="url(#id4)"><path fill="#00f6ff" d="M 95.796875 287.644531 L 86.269531 287.644531 L 86.269531 112.429688 L 95.796875 112.429688 L 95.796875 287.644531 " fill-opacity="1" fill-rule="nonzero"/></g><g clip-path="url(#id5)"><path fill="#00f6ff" d="M 283.101562 287.644531 L 273.578125 287.644531 L 273.578125 112.433594 L 283.101562 112.433594 L 283.101562 287.644531 " fill-opacity="1" fill-rule="nonzero"/></g><path fill="#00f6ff" d="M 295.515625 214.777344 L 73.269531 214.777344 L 73.269531 205.324219 L 295.515625 205.324219 L 295.515625 214.777344 " fill-opacity="1" fill-rule="nonzero"/><g clip-path="url(#id6)"><path fill="#00f6ff" d="M 283.101562 287.644531 L 86.269531 287.644531 L 86.269531 221.453125 L 283.101562 221.453125 L 283.101562 287.644531 " fill-opacity="1" fill-rule="nonzero"/></g></svg>