<svg xmlns="http://www.w3.org/2000/svg" xmlns:xlink="http://www.w3.org/1999/xlink" width="500" zoomAndPan="magnify" viewBox="0 0 375 374.999991" height="500" preserveAspectRatio="xMidYMid meet" version="1.0"><defs><clipPath id="id1"><path d="M 23 57 L 352 57 L 352 337.78125 L 23 337.78125 Z M 23 57 " clip-rule="nonzero"/></clipPath></defs><path fill="#000000" d="M 187.5 0 C 83.945312 0 0 83.945312 0 187.5 C 0 291.054688 83.945312 375 187.5 375 C 291.054688 375 375 291.054688 375 187.5 C 375 83.945312 291.054688 0 187.5 0 " fill-opacity="1" fill-rule="nonzero"/><g clip-path="url(#id1)"><path fill="#ff1616" d="M 335.957031 92.683594 C 312.214844 55.238281 262.710938 52.226562 231.773438 62.832031 C 207.773438 71.082031 190.507812 93.992188 187.5 97.921875 C 184.492188 93.992188 167.878906 71.539062 143.878906 63.355469 C 112.945312 52.75 62.785156 55.238281 39.042969 92.683594 C 29.625 107.542969 0 155.59375 64.222656 229.832031 C 64.222656 229.832031 124.976562 300.074219 181.089844 334.050781 C 183.640625 335.554688 186.910156 337.585938 187.171875 337.453125 C 187.433594 337.585938 191.03125 335.621094 193.582031 334.050781 C 249.695312 300.074219 310.777344 229.832031 310.777344 229.832031 C 375 155.59375 345.375 107.542969 335.957031 92.683594 Z M 335.957031 92.683594 " fill-opacity="1" fill-rule="nonzero"/></g><path fill="#000000" d="M 177.230469 267.539062 C 175.007812 267.539062 172.980469 266.164062 172.195312 264.003906 L 133.808594 161.421875 L 119.289062 208.097656 C 118.570312 210.324219 116.476562 212.023438 114.121094 212.023438 L 72.921875 212.023438 C 69.910156 212.023438 67.492188 209.472656 67.492188 206.460938 C 67.492188 203.449219 69.910156 200.894531 72.921875 200.894531 L 110.132812 200.894531 L 128.183594 143.089844 C 128.902344 140.867188 130.863281 139.359375 133.21875 139.292969 C 135.574219 139.230469 137.601562 140.667969 138.449219 142.828125 L 176.382812 244.167969 L 196.328125 167.574219 C 196.917969 165.347656 198.8125 163.777344 201.039062 163.582031 C 203.261719 163.386719 205.417969 164.5625 206.402344 166.660156 L 222.292969 200.109375 L 239.753906 130 C 240.34375 127.707031 242.371094 126.003906 244.722656 125.941406 C 247.078125 125.808594 249.300781 127.316406 250.085938 129.539062 L 262.90625 166.003906 L 312.542969 166.136719 C 315.550781 166.136719 317.90625 168.164062 317.90625 171.109375 C 317.90625 174.121094 315.488281 176.085938 312.476562 176.085938 L 258.980469 176.347656 C 256.691406 176.347656 254.664062 175.101562 253.878906 172.941406 L 245.769531 149.964844 L 228.964844 217.261719 C 228.441406 219.488281 226.542969 221.125 224.253906 221.386719 C 221.964844 221.582031 219.808594 220.40625 218.828125 218.308594 L 202.804688 184.660156 L 182.269531 263.480469 C 181.679688 265.769531 179.652344 267.40625 177.296875 267.539062 C 177.429688 267.539062 177.363281 267.539062 177.230469 267.539062 Z M 177.230469 267.539062 " fill-opacity="1" fill-rule="nonzero"/><path fill="#000000" d="M 84.039062 205.28125 C 84.039062 206.050781 83.964844 206.8125 83.8125 207.566406 C 83.664062 208.324219 83.441406 209.054688 83.148438 209.765625 C 82.851562 210.476562 82.492188 211.152344 82.066406 211.792969 C 81.636719 212.433594 81.152344 213.023438 80.609375 213.566406 C 80.066406 214.113281 79.472656 214.597656 78.835938 215.027344 C 78.195312 215.453125 77.523438 215.8125 76.8125 216.109375 C 76.101562 216.402344 75.371094 216.625 74.617188 216.773438 C 73.863281 216.925781 73.101562 217 72.332031 217 C 71.5625 217 70.800781 216.925781 70.046875 216.773438 C 69.292969 216.625 68.5625 216.402344 67.851562 216.109375 C 67.140625 215.8125 66.46875 215.453125 65.828125 215.027344 C 65.1875 214.597656 64.597656 214.113281 64.054688 213.566406 C 63.511719 213.023438 63.023438 212.433594 62.597656 211.792969 C 62.171875 211.152344 61.808594 210.476562 61.515625 209.765625 C 61.222656 209.054688 61 208.324219 60.851562 207.566406 C 60.699219 206.8125 60.625 206.050781 60.625 205.28125 C 60.625 204.511719 60.699219 203.75 60.851562 202.996094 C 61 202.242188 61.222656 201.507812 61.515625 200.796875 C 61.808594 200.085938 62.171875 199.410156 62.597656 198.773438 C 63.023438 198.132812 63.511719 197.539062 64.054688 196.996094 C 64.597656 196.453125 65.1875 195.964844 65.828125 195.539062 C 66.46875 195.113281 67.140625 194.75 67.851562 194.457031 C 68.5625 194.160156 69.292969 193.941406 70.046875 193.789062 C 70.800781 193.640625 71.5625 193.5625 72.332031 193.5625 C 73.101562 193.5625 73.863281 193.640625 74.617188 193.789062 C 75.371094 193.941406 76.101562 194.160156 76.8125 194.457031 C 77.523438 194.75 78.195312 195.113281 78.835938 195.539062 C 79.472656 195.964844 80.066406 196.453125 80.609375 196.996094 C 81.152344 197.539062 81.636719 198.132812 82.066406 198.773438 C 82.492188 199.410156 82.851562 200.085938 83.148438 200.796875 C 83.441406 201.507812 83.664062 202.242188 83.8125 202.996094 C 83.964844 203.75 84.039062 204.511719 84.039062 205.28125 Z M 84.039062 205.28125 " fill-opacity="1" fill-rule="nonzero"/><path fill="#000000" d="M 329.351562 171.304688 C 329.351562 172.074219 329.277344 172.839844 329.125 173.59375 C 328.976562 174.347656 328.753906 175.078125 328.460938 175.789062 C 328.164062 176.5 327.804688 177.175781 327.378906 177.816406 C 326.953125 178.457031 326.464844 179.046875 325.921875 179.59375 C 325.378906 180.136719 324.789062 180.621094 324.148438 181.050781 C 323.507812 181.476562 322.835938 181.839844 322.125 182.132812 C 321.414062 182.425781 320.683594 182.648438 319.929688 182.800781 C 319.175781 182.949219 318.414062 183.023438 317.644531 183.023438 C 316.875 183.023438 316.113281 182.949219 315.359375 182.800781 C 314.605469 182.648438 313.875 182.425781 313.164062 182.132812 C 312.453125 181.839844 311.78125 181.476562 311.140625 181.050781 C 310.5 180.621094 309.910156 180.136719 309.367188 179.59375 C 308.824219 179.046875 308.339844 178.457031 307.910156 177.816406 C 307.484375 177.175781 307.125 176.5 306.828125 175.789062 C 306.535156 175.078125 306.3125 174.347656 306.164062 173.59375 C 306.011719 172.839844 305.9375 172.074219 305.9375 171.304688 C 305.9375 170.539062 306.011719 169.773438 306.164062 169.019531 C 306.3125 168.265625 306.535156 167.53125 306.828125 166.820312 C 307.125 166.113281 307.484375 165.4375 307.910156 164.796875 C 308.339844 164.15625 308.824219 163.566406 309.367188 163.019531 C 309.910156 162.476562 310.5 161.992188 311.140625 161.5625 C 311.78125 161.136719 312.453125 160.773438 313.164062 160.480469 C 313.875 160.1875 314.605469 159.964844 315.359375 159.8125 C 316.113281 159.664062 316.875 159.589844 317.644531 159.589844 C 318.414062 159.589844 319.175781 159.664062 319.929688 159.8125 C 320.683594 159.964844 321.414062 160.1875 322.125 160.480469 C 322.835938 160.773438 323.507812 161.136719 324.148438 161.5625 C 324.789062 161.992188 325.378906 162.476562 325.921875 163.019531 C 326.464844 163.566406 326.953125 164.15625 327.378906 164.796875 C 327.804688 165.4375 328.164062 166.113281 328.460938 166.820312 C 328.753906 167.53125 328.976562 168.265625 329.125 169.019531 C 329.277344 169.773438 329.351562 170.539062 329.351562 171.304688 Z M 329.351562 171.304688 " fill-opacity="1" fill-rule="nonzero"/></svg>