<svg xmlns="http://www.w3.org/2000/svg" xmlns:xlink="http://www.w3.org/1999/xlink" width="500" zoomAndPan="magnify" viewBox="0 0 375 374.999991" height="500" preserveAspectRatio="xMidYMid meet" version="1.0"><defs><clipPath id="id1"><path d="M 37.5 248 L 198 248 L 198 272 L 37.5 272 Z M 37.5 248 " clip-rule="nonzero"/></clipPath><clipPath id="id2"><path d="M 41 278 L 194 278 L 194 301.5 L 41 301.5 Z M 41 278 " clip-rule="nonzero"/></clipPath><clipPath id="id3"><path d="M 210 162 L 323 162 L 323 301.5 L 210 301.5 Z M 210 162 " clip-rule="nonzero"/></clipPath><clipPath id="id4"><path d="M 170 37.5 L 330.75 37.5 L 330.75 156 L 170 156 Z M 170 37.5 " clip-rule="nonzero"/></clipPath></defs><rect x="-37.5" width="450" fill="#ffffff" y="-37.499999" height="449.999989" fill-opacity="1"/><rect x="-37.5" width="450" fill="#ffffff" y="-37.499999" height="449.999989" fill-opacity="1"/><rect x="-37.5" width="450" fill="#ffffff" y="-37.499999" height="449.999989" fill-opacity="1"/><path fill="#000000" d="M 187.5 0 C 83.945312 0 0 83.945312 0 187.5 C 0 291.054688 83.945312 375 187.5 375 C 291.054688 375 375 291.054688 375 187.5 C 375 83.945312 291.054688 0 187.5 0 " fill-opacity="1" fill-rule="nonzero"/><path fill="#f46e00" d="M 117.527344 195.285156 C 75.652344 195.285156 41.699219 216.71875 41.699219 240.808594 L 193.375 240.808594 C 193.375 216.71875 159.414062 195.285156 117.527344 195.285156 Z M 117.527344 195.285156 " fill-opacity="1" fill-rule="nonzero"/><g clip-path="url(#id1)"><path fill="#f46e00" d="M 197.160156 263.566406 L 197.160156 255.984375 C 197.160156 251.785156 193.769531 248.386719 189.578125 248.386719 L 45.484375 248.386719 C 41.289062 248.386719 37.902344 251.785156 37.902344 255.984375 L 37.902344 263.566406 C 37.902344 267.757812 41.289062 271.160156 45.484375 271.160156 L 189.578125 271.160156 C 193.769531 271.160156 197.160156 267.757812 197.160156 263.566406 Z M 197.160156 263.566406 " fill-opacity="1" fill-rule="nonzero"/></g><g clip-path="url(#id2)"><path fill="#f46e00" d="M 56.855469 301.5 L 178.203125 301.5 C 186.582031 301.5 193.375 287.117188 193.375 278.742188 L 41.699219 278.742188 C 41.699219 287.117188 48.476562 301.5 56.855469 301.5 Z M 56.855469 301.5 " fill-opacity="1" fill-rule="nonzero"/></g><g clip-path="url(#id3)"><path fill="#f46e00" d="M 304.085938 301.5 L 322.839844 162.667969 L 210.320312 162.667969 L 229.058594 301.5 Z M 304.085938 301.5 " fill-opacity="1" fill-rule="nonzero"/></g><g clip-path="url(#id4)"><path fill="#f46e00" d="M 330.347656 136.410156 L 246.832031 136.410156 L 226.296875 61.105469 L 175.15625 37.5 L 170.445312 47.707031 L 216.828125 69.136719 L 235.171875 136.410156 L 202.820312 136.410156 L 202.820312 155.167969 L 330.347656 155.167969 Z M 330.347656 136.410156 " fill-opacity="1" fill-rule="nonzero"/></g></svg>