<svg xmlns="http://www.w3.org/2000/svg" xmlns:xlink="http://www.w3.org/1999/xlink" width="500" zoomAndPan="magnify" viewBox="0 0 375 374.999991" height="500" preserveAspectRatio="xMidYMid meet" version="1.0"><defs><clipPath id="id1"><path d="M 210 77 L 342 77 L 342 317.597656 L 210 317.597656 Z M 210 77 " clip-rule="nonzero"/></clipPath><clipPath id="id2"><path d="M 35 77 L 167 77 L 167 317.597656 L 35 317.597656 Z M 35 77 " clip-rule="nonzero"/></clipPath><clipPath id="id3"><path d="M 117 59.597656 L 254 59.597656 L 254 181 L 117 181 Z M 117 59.597656 " clip-rule="nonzero"/></clipPath></defs><rect x="-37.5" width="450" fill="#ffffff" y="-37.499999" height="449.999989" fill-opacity="1"/><rect x="-37.5" width="450" fill="#ffffff" y="-37.499999" height="449.999989" fill-opacity="1"/><rect x="-37.5" width="450" fill="#ffffff" y="-37.499999" height="449.999989" fill-opacity="1"/><path fill="#000000" d="M 187.5 0 C 83.945312 0 0 83.945312 0 187.5 C 0 291.054688 83.945312 375 187.5 375 C 291.054688 375 375 291.054688 375 187.5 C 375 83.945312 291.054688 0 187.5 0 " fill-opacity="1" fill-rule="nonzero"/><g clip-path="url(#id1)"><path fill="#fffc00" d="M 325.65625 77.796875 C 316.203125 78.898438 311.753906 86.367188 311.933594 96.046875 C 312.5 122.066406 308.957031 151.6875 294.714844 173.082031 C 289.140625 181.445312 282.429688 187 274.351562 193.667969 L 285.34375 172.574219 C 288.800781 165.945312 286.226562 157.75 279.597656 154.300781 C 272.972656 150.828125 264.796875 153.40625 261.339844 160.039062 L 228.074219 223.886719 C 197.132812 266.722656 216.441406 317.402344 216.441406 317.402344 L 264.207031 317.621094 C 264.449219 293.152344 279.492188 272.289062 279.492188 272.289062 C 346.746094 193.207031 341.789062 116.484375 341.367188 96.84375 C 341.125 85.375 335.089844 76.695312 325.65625 77.796875 " fill-opacity="1" fill-rule="nonzero"/></g><g clip-path="url(#id2)"><path fill="#fffc00" d="M 51.800781 77.796875 C 61.265625 78.898438 65.703125 86.367188 65.519531 96.046875 C 64.953125 122.066406 68.496094 151.6875 82.738281 173.082031 C 88.3125 181.445312 95.023438 187 103.101562 193.667969 L 92.109375 172.574219 C 88.652344 165.945312 91.214844 157.75 97.855469 154.300781 C 104.480469 150.828125 112.65625 153.40625 116.113281 160.039062 L 149.390625 223.886719 C 180.324219 266.722656 161.023438 317.402344 161.023438 317.402344 L 113.246094 317.621094 C 113.007812 293.152344 97.964844 272.289062 97.964844 272.289062 C 30.710938 193.207031 35.660156 116.484375 36.085938 96.84375 C 36.328125 85.375 42.371094 76.695312 51.800781 77.796875 " fill-opacity="1" fill-rule="nonzero"/></g><g clip-path="url(#id3)"><path fill="#fffc00" d="M 253.878906 97.5 C 253.878906 76.550781 236.925781 59.574219 215.996094 59.574219 C 203.457031 59.574219 192.34375 65.671875 185.449219 75.0625 C 178.546875 65.671875 167.433594 59.574219 154.894531 59.574219 C 133.972656 59.574219 117.007812 76.550781 117.007812 97.5 C 117.007812 107.628906 120.988281 116.824219 127.457031 123.625 L 183.683594 180.707031 L 245.933594 120.734375 C 250.90625 114.308594 253.878906 106.25 253.878906 97.5 " fill-opacity="1" fill-rule="nonzero"/></g></svg>