<svg xmlns="http://www.w3.org/2000/svg" xmlns:xlink="http://www.w3.org/1999/xlink" width="500" zoomAndPan="magnify" viewBox="0 0 375 374.999991" height="500" preserveAspectRatio="xMidYMid meet" version="1.0"><defs><clipPath id="id1"><path d="M 75 47 L 299.871094 47 L 299.871094 328.492188 L 75 328.492188 Z M 75 47 " clip-rule="nonzero"/></clipPath></defs><rect x="-37.5" width="450" fill="#ffffff" y="-37.499999" height="449.999989" fill-opacity="1"/><rect x="-37.5" width="450" fill="#ffffff" y="-37.499999" height="449.999989" fill-opacity="1"/><rect x="-37.5" width="450" fill="#ffffff" y="-37.499999" height="449.999989" fill-opacity="1"/><path fill="#000000" d="M 187.5 0 C 83.945312 0 0 83.945312 0 187.5 C 0 291.054688 83.945312 375 187.5 375 C 291.054688 375 375 291.054688 375 187.5 C 375 83.945312 291.054688 0 187.5 0 " fill-opacity="1" fill-rule="nonzero"/><g clip-path="url(#id1)"><path fill="#ff66c4" d="M 75.09375 316.785156 C 75.09375 316.785156 75.429688 328.492188 92.804688 328.492188 L 233.148438 328.492188 C 250.523438 328.492188 250.859375 316.785156 250.859375 316.785156 C 250.859375 302.734375 247.515625 291.027344 247.515625 291.027344 L 242.503906 256.234375 L 275.25 256.234375 C 288.617188 256.234375 299.644531 245.195312 299.644531 231.816406 L 299.644531 116.40625 C 299.644531 103.027344 288.617188 91.988281 275.25 91.988281 L 242.171875 91.988281 L 242.171875 67.566406 C 242.171875 46.492188 162.976562 47.160156 162.976562 47.160156 C 162.976562 47.160156 83.785156 46.492188 83.785156 67.566406 L 83.785156 253.894531 L 78.769531 290.691406 C 78.4375 291.027344 75.09375 302.734375 75.09375 316.785156 Z M 275.25 237.503906 L 242.171875 237.503906 L 242.171875 110.386719 L 275.25 110.386719 C 278.59375 110.386719 280.933594 113.0625 280.933594 116.074219 L 280.933594 231.480469 C 281.265625 234.828125 278.59375 237.503906 275.25 237.503906 Z M 275.25 237.503906 " fill-opacity="1" fill-rule="nonzero"/></g></svg>