<svg xmlns="http://www.w3.org/2000/svg" xmlns:xlink="http://www.w3.org/1999/xlink" width="500" zoomAndPan="magnify" viewBox="0 0 375 374.999991" height="500" preserveAspectRatio="xMidYMid meet" version="1.0"><defs><clipPath id="id1"><path d="M 71.84375 108.644531 L 302.84375 108.644531 L 302.84375 266.144531 L 71.84375 266.144531 Z M 71.84375 108.644531 " clip-rule="nonzero"/></clipPath></defs><path fill="#000000" d="M 187.5 0 C 83.945312 0 0 83.945312 0 187.5 C 0 291.054688 83.945312 375 187.5 375 C 291.054688 375 375 291.054688 375 187.5 C 375 83.945312 291.054688 0 187.5 0 " fill-opacity="1" fill-rule="nonzero"/><g clip-path="url(#id1)"><path fill="#2bff00" d="M 134.84375 192.644531 C 152.222656 192.644531 166.34375 178.523438 166.34375 161.144531 C 166.34375 143.769531 152.222656 129.644531 134.84375 129.644531 C 117.46875 129.644531 103.34375 143.769531 103.34375 161.144531 C 103.34375 178.523438 117.46875 192.644531 134.84375 192.644531 Z M 260.84375 129.644531 L 176.84375 129.644531 L 176.84375 203.144531 L 92.84375 203.144531 L 92.84375 108.644531 L 71.84375 108.644531 L 71.84375 266.144531 L 92.84375 266.144531 L 92.84375 234.644531 L 281.84375 234.644531 L 281.84375 266.144531 L 302.84375 266.144531 L 302.84375 171.644531 C 302.84375 148.441406 284.050781 129.644531 260.84375 129.644531 Z M 260.84375 129.644531 " fill-opacity="1" fill-rule="nonzero"/></g></svg>